{"accessors" : [{"bufferView" : 0, "byteOffset" : 0, "componentType" : 5123, "count" : 7908, "type" : "SCALAR", "max" : [6517], "min" : [0]}, {"bufferView" : 1, "byteOffset" : 0, "componentType" : 5126, "count" : 6518, "type" : "VEC3", "max" : [6.75029993057251, 107.06839752197266, 3.4375], "min" : [-7.13670015335083, 1.9427000284194946, -3.4375], "name" : "POSITION"}, {"bufferView" : 1, "byteOffset" : 12, "componentType" : 5126, "count" : 6518, "type" : "VEC2", "max" : [0.9883000254631042, 0.9922000169754028], "min" : [0.008799999952316284, 0.008999999612569809], "name" : "TEXCOORD_0"}], "asset" : {"generator" : "Aspose.3D 22.1", "version" : "2.0"}, "buffers" : [{"uri" : "data:application/octet-stream;base64,", "byteLength" : 173984}], "bufferViews" : [{"buffer" : 0, "byteOffset" : 0, "byteLength" : 15816, "target" : 34963}, {"buffer" : 0, "byteOffset" : 15820, "byteLength" : 158160, "byteStride" : 20, "target" : 34962}], "meshes" : [{"primitives" : [{"attributes" : {"POSITION" : 1, "TEXCOORD_0" : 2}, "indices" : 0, "mode" : 4}], "name" : ""}], "nodes" : [{"mesh" : 0, "name" : "Mistsplitter"}], "scene" : 0, "scenes" : [{"nodes" : [0]}]}